<?xml version="1.0" encoding="UTF-8"?>
<svg id="Layer_1" xmlns="http://www.w3.org/2000/svg" version="1.1" viewBox="0 0 800 800">
  <!-- Generator: Adobe Illustrator 29.8.4, SVG Export Plug-In . SVG Version: 2.1.1 Build 6)  -->
  <path d="M399.04,41.43c-193.35,0-349.95,158.37-349.95,353.51s156.6,353.51,349.95,353.51c205.16,0,45.49-133.39,122.04-214.46,33.24-35.35,71.3-41.01,106.73-41.01,16.19,0,31.93,1.41,46.37,1.41,43.31,0,75.24-10.84,75.24-98.98-.44-195.61-157.04-353.98-350.38-353.98ZM689.93,433.59c-2.19.47-7,.94-16.19.94-6.12,0-12.69,0-19.68-.47-8.31,0-17.06-.47-26.68-.47-38.93,0-95.8,6.13-145.23,57.98-51.18,54.68-39.37,122.55-32.37,163.56,1.31,8.48,3.5,20.74,3.94,28.28-7,2.36-22.75,6.13-55.12,6.13-162.73,0-295.27-131.98-295.27-294.59S236.31,100.35,399.04,100.35s295.27,131.98,295.27,294.59c0,23.57-2.62,34.88-4.37,38.65Z"/>
  <path d="M302.05,463.17c-44.86,0-81.02,37.4-81.02,83.69s36.59,83.69,81.02,83.69,81.02-37.4,81.02-83.69-36.59-83.69-81.02-83.69ZM302.05,573.04c-15.25,0-27.88-11.69-27.88-26.18s12.63-26.18,27.88-26.18,27.88,11.69,27.88,26.18-12.63,26.18-27.88,26.18ZM293.34,358.44c0-46.29-36.59-83.69-81.02-83.69s-81.02,37.4-81.02,83.69,36.59,83.69,81.02,83.69,81.02-37.4,81.02-83.69ZM212.32,384.62c-15.25,0-27.88-11.69-27.88-26.18s12.63-26.18,27.88-26.18,27.88,11.69,27.88,26.18-12.63,26.18-27.88,26.18ZM366.08,137.29c-44.86,0-81.02,37.4-81.02,83.69s36.59,83.69,81.02,83.69,81.02-37.4,81.02-83.69-36.59-83.69-81.02-83.69ZM366.08,247.16c-15.25,0-27.88-11.69-27.88-26.18s12.63-26.18,27.88-26.18,27.88,11.69,27.88,26.18-12.63,26.18-27.88,26.18h0ZM473.67,308.41c0,46.29,36.59,83.69,81.02,83.69s81.02-37.4,81.02-83.69-36.59-83.69-81.02-83.69-81.02,37.4-81.02,83.69ZM582.56,308.41c0,14.49-12.63,26.18-27.88,26.18s-27.88-11.69-27.88-26.18,12.63-26.18,27.88-26.18,27.88,11.69,27.88,26.18Z"/>
</svg>