<?xml version="1.0" encoding="UTF-8"?>
<svg id="Layer_1" xmlns="http://www.w3.org/2000/svg" version="1.1" viewBox="0 0 128 128">
  <!-- Generator: Adobe Illustrator 29.8.4, SVG Export Plug-In . SVG Version: 2.1.1 Build 6)  -->
  <defs>
    <style>
      .st0 {
        fill: #fff;
      }
    </style>
  </defs>
  <path class="st0" d="M116.06,51.22h-8.69c-.91-3.11-2.14-6.07-3.66-8.86l6.13-6.13c2.31-2.31,2.31-6.08,0-8.39l-9.67-9.67c-2.31-2.31-6.08-2.31-8.39,0l-6.13,6.13c-2.79-1.52-5.75-2.75-8.86-3.66v-8.69c0-3.27-2.67-5.94-5.94-5.94h-13.68c-3.27,0-5.94,2.67-5.94,5.94v8.69c-3.11.91-6.07,2.14-8.86,3.66l-6.13-6.13c-2.31-2.31-6.08-2.31-8.39,0l-9.67,9.67c-2.31,2.31-2.31,6.08,0,8.39l6.13,6.13c-1.52,2.79-2.75,5.75-3.66,8.86h-8.69c-3.27,0-5.94,2.67-5.94,5.94v13.68c0,3.27,2.67,5.94,5.94,5.94h8.69c.91,3.11,2.14,6.07,3.66,8.86l-6.13,6.13c-2.31,2.31-2.31,6.08,0,8.39l9.67,9.67c2.31,2.31,6.08,2.31,8.39,0l6.13-6.13c2.79,1.52,5.75,2.75,8.86,3.66v8.69c0,3.27,2.67,5.94,5.94,5.94h13.68c3.27,0,5.94-2.67,5.94-5.94v-8.69c3.11-.91,6.07-2.14,8.86-3.66l6.13,6.13c2.31,2.31,6.08,2.31,8.39,0l9.67-9.67c2.31-2.31,2.31-6.08,0-8.39l-6.13-6.13c1.52-2.79,2.75-5.75,3.66-8.86h8.69c3.27,0,5.94-2.67,5.94-5.94v-13.68c0-3.27-2.67-5.94-5.94-5.94ZM64,91.72c-15.3,0-27.72-12.41-27.72-27.72s12.41-27.72,27.72-27.72,27.72,12.41,27.72,27.72-12.41,27.72-27.72,27.72Z"/>
</svg>